# xmcd
#
# Track frame offsets: 
#        150
#        56295
#        113117
#        153790
#
# Disc length: 2827 seconds
#
# Revision: 11
# Processed by: cddbd v1.5.2PL0 Copyright (c) Steve Scherf et al.
# Submitted via: ExactAudioCopy v1.0b3
#
DISCID=230b0904
DTITLE=Eugen Jochum, Staatskapelle Dresden - Sinfonie Nr. 1 in C-moll 
DTITLE=(Linzer Fassung)
DYEAR=1978
DGENRE=Classical
TTITLE0=Sinfonie Nr. 1 in c-moll - I. Allegro molto moderato
TTITLE1=Sinfonie Nr. 1 in c-moll - II. Adagio
TTITLE2=Sinfonie Nr. 1 in c-moll - III. Scherzo. Schnell
TTITLE3=Sinfonie Nr. 1 in c-moll - IV. Finale. Bewegt, feurig
EXTD=Ed. Nowak\nStaatskapelle Dresden/ Eugen Jochum YEAR: 1978
EXTT0=
EXTT1=
EXTT2=
EXTT3=
PLAYORDER=
